<svg width="21" height="20" viewBox="0 0 21 20" fill="none" xmlns="http://www.w3.org/2000/svg">
<path d="M10.5 0.0400391C15.9998 0.0400391 20.4997 4.52979 20.5 10.0596C20.5054 12.4452 19.658 14.7549 18.1104 16.5703C16.5626 18.3858 14.416 19.5878 12.0596 19.96V12.96H14.3896L14.8398 10.0596H12.0596V8.17969C12.0597 7.38981 12.4506 6.62012 13.6904 6.62012H14.9502V4.15039C14.9502 4.15039 13.8097 3.95996 12.7197 3.95996C10.43 3.96007 8.9406 5.33998 8.94043 7.84961V10.0596H6.40039V12.96H8.94043V19.96C4.16043 19.21 0.5 15.0596 0.5 10.0596C0.500255 4.52979 5.00016 0.0400391 10.5 0.0400391Z" fill="black"/>
</svg>
