<svg width="21" height="20" viewBox="0 0 21 20" fill="none" xmlns="http://www.w3.org/2000/svg">
<path d="M14.7002 0C17.9 0.000105376 20.4999 2.59996 20.5 5.7998V14.2002C20.4999 15.7384 19.8884 17.2131 18.8008 18.3008C17.7131 19.3884 16.2384 19.9999 14.7002 20H6.2998C3.09996 19.9999 0.500105 17.4 0.5 14.2002V5.7998C0.500052 4.26162 1.11155 2.78688 2.19922 1.69922C3.28688 0.611554 4.76162 5.17734e-05 6.2998 0H14.7002ZM6.09961 2C5.14497 2.0001 4.22973 2.37965 3.55469 3.05469C2.87965 3.72973 2.5001 4.64497 2.5 5.59961V14.4004C2.50021 16.3901 4.10992 17.9998 6.09961 18H14.9004C15.855 17.9999 16.7703 17.6204 17.4453 16.9453C18.1204 16.2703 18.4999 15.355 18.5 14.4004V5.59961C18.4998 3.60992 16.8901 2.00021 14.9004 2H6.09961ZM10.5 5C11.8261 5 13.0975 5.52716 14.0352 6.46484C14.9728 7.40253 15.5 8.67392 15.5 10C15.5 11.3261 14.9728 12.5975 14.0352 13.5352C13.0975 14.4728 11.8261 15 10.5 15C9.17392 15 7.90253 14.4728 6.96484 13.5352C6.02716 12.5975 5.5 11.3261 5.5 10C5.5 8.67392 6.02716 7.40253 6.96484 6.46484C7.90253 5.52716 9.17392 5 10.5 5ZM10.5 7C9.70435 7 8.94151 7.3163 8.37891 7.87891C7.8163 8.44151 7.5 9.20435 7.5 10C7.5 10.7956 7.8163 11.5585 8.37891 12.1211C8.94151 12.6837 9.70435 13 10.5 13C11.2956 13 12.0585 12.6837 12.6211 12.1211C13.1837 11.5585 13.5 10.7956 13.5 10C13.5 9.20435 13.1837 8.44151 12.6211 7.87891C12.0585 7.3163 11.2956 7 10.5 7ZM15.75 3.5C16.0815 3.5 16.3994 3.63179 16.6338 3.86621C16.8682 4.10063 17 4.41848 17 4.75C17 5.08152 16.8682 5.39937 16.6338 5.63379C16.3994 5.86821 16.0815 6 15.75 6C15.4185 6 15.1006 5.86821 14.8662 5.63379C14.6318 5.39937 14.5 5.08152 14.5 4.75C14.5 4.41848 14.6318 4.10063 14.8662 3.86621C15.1006 3.63179 15.4185 3.5 15.75 3.5Z" fill="black"/>
</svg>
