<svg width="25" height="24" viewBox="0 0 25 24" fill="none" xmlns="http://www.w3.org/2000/svg">
<path d="M19.5 3C20.0304 3 20.539 3.21086 20.9141 3.58594C21.2891 3.96101 21.5 4.46957 21.5 5V19C21.5 19.5304 21.2891 20.039 20.9141 20.4141C20.539 20.7891 20.0304 21 19.5 21H5.5C4.96957 21 4.46101 20.7891 4.08594 20.4141C3.71086 20.039 3.5 19.5304 3.5 19V5C3.5 4.46957 3.71086 3.96101 4.08594 3.58594C4.46101 3.21086 4.96957 3 5.5 3H19.5ZM6 18.5H8.76953V10.1299H6V18.5ZM15.7402 9.94043C14.8902 9.94043 13.8999 10.4602 13.4199 11.2402V10.1299H10.6299V18.5H13.4199V13.5703C13.4199 12.8005 14.0398 12.1702 14.8096 12.1699C15.1808 12.1699 15.5373 12.3176 15.7998 12.5801C16.0624 12.8426 16.21 13.199 16.21 13.5703V18.5H19V13.2002C19 12.3356 18.6563 11.5059 18.0449 10.8945C17.4336 10.2834 16.6046 9.94049 15.7402 9.94043ZM7.37988 5.19043C6.93171 5.19046 6.50148 5.36766 6.18457 5.68457C5.86766 6.00148 5.69046 6.43171 5.69043 6.87988C5.69043 7.80984 6.44994 8.55951 7.37988 8.55957C7.82545 8.55957 8.2533 8.38342 8.56836 8.06836C8.88342 7.7533 9.05957 7.32545 9.05957 6.87988C9.05951 5.94994 8.30984 5.19043 7.37988 5.19043Z" fill="black"/>
</svg>
