<svg width="20" height="20" viewBox="0 0 20 20" fill="none" xmlns="http://www.w3.org/2000/svg">
<path d="M11.4746 0.109707C6.03477 -0.701511 0.920261 3.08555 0.109043 8.52539C-0.702175 13.9652 3.08488 19.0797 8.52473 19.891C13.9646 20.7022 19.0791 16.9151 19.8903 11.4753C20.7015 6.03543 16.9145 0.920925 11.4746 0.109707ZM5.00231 6.22193L8.98026 3.27644L11.9257 7.25439L9.45309 6.88565L8.86311 10.8419L6.88499 10.5469L7.47497 6.59067L5.00231 6.22193ZM14.997 13.7787L11.0191 16.7242L8.07359 12.7463L10.5463 13.115L11.1362 9.15877L13.1144 9.45376L12.5244 13.41L14.997 13.7787Z" fill="white"/>
</svg>
